<svg width="40" height="40" viewBox="0 0 40 40" fill="none" xmlns="http://www.w3.org/2000/svg">
<path d="M14.7311 24.5231C14.6638 24.4631 14.615 24.3852 14.5904 24.2984C14.5658 24.2117 14.5664 24.1197 14.5922 24.0333L15.7123 20.0496L13.067 16.8673C13.0096 16.7983 12.9728 16.7147 12.9606 16.6258C12.9485 16.537 12.9615 16.4465 12.9982 16.3647C13.0332 16.2824 13.0911 16.2119 13.1649 16.1614C13.2387 16.1109 13.3254 16.0826 13.4148 16.0798L17.5533 15.9152L19.7652 12.4134C19.8055 12.348 19.8623 12.2943 19.9298 12.2575C20.0171 12.2054 20.1191 12.1834 20.2202 12.195C20.3094 12.2042 20.3943 12.2381 20.4651 12.2931C20.536 12.3481 20.59 12.4218 20.6211 12.5059L22.0544 16.3879L26.0644 17.4098C26.1521 17.4307 26.2321 17.4761 26.2949 17.5408C26.3577 17.6055 26.4008 17.6867 26.4192 17.775C26.4369 17.8627 26.4301 17.9535 26.3996 18.0376C26.369 18.1216 26.3158 18.1956 26.2459 18.2514L22.9943 20.8149L23.2659 24.947C23.2646 25.0339 23.2407 25.1189 23.1966 25.1939C23.1526 25.2688 23.0899 25.331 23.0146 25.3744C22.9394 25.4179 22.8541 25.4411 22.7673 25.4418C22.6804 25.4425 22.5948 25.4206 22.5188 25.3784L19.0761 23.0771L15.2302 24.6113C15.147 24.6439 15.0563 24.653 14.9683 24.6374C14.8802 24.6219 14.7981 24.5823 14.7311 24.5231ZM25.0947 29.6942L23.8232 27.5418C23.7911 27.4876 23.7701 27.4277 23.7611 27.3653C23.7522 27.303 23.7557 27.2396 23.7713 27.1786C23.7869 27.1176 23.8144 27.0603 23.8522 27.01C23.89 26.9596 23.9373 26.9172 23.9914 26.8851L23.996 26.8825C24.1053 26.8194 24.2351 26.8019 24.3571 26.8339C24.4792 26.8659 24.5838 26.9448 24.6481 27.0534L25.921 29.2083C26.2971 29.1193 26.6927 29.168 27.0359 29.3457C27.3792 29.5234 27.6474 29.8182 27.7918 30.1767C27.9362 30.5352 27.9474 30.9336 27.8232 31.2996C27.699 31.6656 27.4477 31.975 27.1149 32.1715L27.1 32.1802C26.7663 32.3759 26.3733 32.4454 25.9927 32.3758C25.6121 32.3063 25.2692 32.1024 25.0263 31.8012C24.7833 31.5001 24.6566 31.1217 24.6692 30.735C24.6818 30.3483 24.8328 29.979 25.0947 29.6942ZM26.1258 31.4178C26.2934 31.461 26.4713 31.4366 26.6211 31.3498L26.6282 31.3457C26.7797 31.2573 26.8898 31.1122 26.9343 30.9426C26.9789 30.7729 26.9542 30.5925 26.8657 30.441C26.7772 30.2896 26.6322 30.1795 26.4625 30.1349C26.2929 30.0904 26.1125 30.1151 25.961 30.2035L25.9552 30.2069C25.8425 30.2734 25.7521 30.3719 25.6954 30.4898C25.6387 30.6077 25.6182 30.7398 25.6366 30.8694C25.655 30.999 25.7114 31.1202 25.7987 31.2176C25.886 31.3151 26.0003 31.3845 26.127 31.417L26.1258 31.4178ZM15.5964 12.704L15.5906 12.7074C15.4813 12.7705 15.3516 12.7879 15.2295 12.756C15.1074 12.724 15.0029 12.6451 14.9386 12.5365L13.6664 10.3839C13.3319 10.4612 12.9815 10.431 12.6651 10.2978C12.3488 10.1645 12.0824 9.93484 11.9041 9.64149C11.7955 9.45832 11.7242 9.25555 11.694 9.04479C11.6639 8.83401 11.6755 8.61937 11.7283 8.41311C11.7812 8.20685 11.8741 8.01302 12.0019 7.84269C12.1296 7.67236 12.2897 7.52887 12.4729 7.42041L12.4878 7.41179C12.8216 7.21602 13.2145 7.14659 13.5951 7.21615C13.9757 7.2857 14.3187 7.48961 14.5616 7.79075C14.8045 8.09189 14.9312 8.47025 14.9186 8.85695C14.9061 9.24364 14.7551 9.61298 14.4931 9.89771L15.7647 12.0474C15.7967 12.1016 15.8178 12.1615 15.8267 12.2238C15.8356 12.2861 15.8322 12.3496 15.8166 12.4106C15.8009 12.4715 15.7735 12.5288 15.7357 12.5792C15.6979 12.6295 15.6506 12.672 15.5964 12.704ZM13.4621 8.17419C13.3778 8.15143 13.2898 8.14608 13.2034 8.15847C13.117 8.17085 13.0341 8.20071 12.9596 8.24622C12.8082 8.3347 12.6981 8.47972 12.6535 8.64938C12.609 8.81905 12.6337 8.99946 12.7221 9.15092C12.8106 9.30239 12.9556 9.4125 13.1253 9.45704C13.295 9.50159 13.4754 9.4769 13.6268 9.38843L13.6326 9.38507C13.7453 9.31854 13.8357 9.22008 13.8925 9.10215C13.9492 8.98422 13.9696 8.85211 13.9512 8.72256C13.9328 8.593 13.8764 8.47181 13.7891 8.37432C13.7018 8.27684 13.5876 8.20744 13.4608 8.17491L13.4621 8.17419ZM31.6006 14.695C31.23 14.9114 30.7894 14.9741 30.3732 14.8696C30.1193 14.8027 29.8857 14.6746 29.6929 14.4964L27.5418 15.7655L27.5372 15.7681C27.4829 15.7999 27.4228 15.8206 27.3605 15.8292C27.2981 15.8378 27.2347 15.834 27.1738 15.818C27.0508 15.7858 26.9457 15.706 26.8815 15.5963C26.8174 15.4866 26.7994 15.3558 26.8317 15.2329C26.8639 15.1099 26.9436 15.0048 27.0534 14.9406L29.2051 13.6679C29.1253 13.3329 29.1544 12.9812 29.2882 12.664C29.4221 12.3467 29.6537 12.0805 29.9493 11.9039L29.9651 11.8948C30.3361 11.6781 30.778 11.6177 31.1935 11.7268C31.6091 11.8359 31.9643 12.1056 32.181 12.4766C32.3977 12.8476 32.4581 13.2895 32.349 13.705C32.2399 14.1206 31.9701 14.4758 31.5992 14.6925L31.6006 14.695ZM30.9399 12.6602C30.8559 12.6374 30.7682 12.632 30.682 12.6442C30.5958 12.6565 30.5131 12.6862 30.4388 12.7315C30.3262 12.7982 30.236 12.8967 30.1795 13.0146C30.1229 13.1325 30.1026 13.2646 30.1211 13.394C30.1396 13.5235 30.196 13.6446 30.2833 13.742C30.3706 13.8393 30.4848 13.9087 30.6114 13.9412C30.6954 13.9643 30.7832 13.9699 30.8694 13.9577C30.9557 13.9454 31.0384 13.9155 31.1126 13.8699C31.2251 13.8032 31.3154 13.7047 31.3719 13.5868C31.4285 13.4689 31.4488 13.3368 31.4303 13.2074C31.4118 13.0779 31.3554 12.9568 31.2681 12.8594C31.1808 12.762 31.0666 12.6927 30.9399 12.6602ZM7.98724 24.897L8.00259 24.8881C8.29853 24.7157 8.64201 24.6428 8.98246 24.6803C9.32292 24.7178 9.64234 24.8636 9.89368 25.0963L12.0481 23.8253L12.0527 23.8226C12.1624 23.7585 12.2932 23.7405 12.4161 23.7728C12.5391 23.805 12.6442 23.8847 12.7084 23.9945C12.7725 24.1042 12.7905 24.2349 12.7582 24.3579C12.726 24.4808 12.6463 24.586 12.5365 24.6501L10.3816 25.9231C10.4614 26.258 10.4323 26.6097 10.2984 26.927C10.1646 27.2442 9.933 27.5105 9.63735 27.687C9.26519 27.8988 8.82643 27.9613 8.40996 27.8616C8.09885 27.7827 7.81821 27.6131 7.60366 27.3744C7.3891 27.1357 7.25032 26.8386 7.20493 26.5209C7.15954 26.2032 7.20958 25.8791 7.34871 25.5899C7.48784 25.3006 7.70977 25.0593 7.98634 24.8964L7.98724 24.897ZM8.64789 26.9318C8.81519 26.9753 8.9929 26.951 9.14242 26.8643L9.15114 26.8593C9.26366 26.7926 9.35389 26.6941 9.41044 26.5762C9.46698 26.4582 9.4873 26.3262 9.46882 26.1967C9.45034 26.0673 9.39389 25.9462 9.30661 25.8488C9.21933 25.7514 9.10514 25.6821 8.97847 25.6496C8.89442 25.6272 8.80673 25.622 8.72063 25.6343C8.63453 25.6465 8.55177 25.676 8.4773 25.7209C8.36478 25.7875 8.27454 25.886 8.218 26.004C8.16145 26.1219 8.14114 26.2539 8.15962 26.3834C8.1781 26.5129 8.23454 26.6339 8.32182 26.7313C8.4091 26.8287 8.52329 26.8981 8.64996 26.9306L8.64789 26.9318ZM27.9996 21.5477C28.1082 21.4849 28.237 21.4672 28.3585 21.4983L30.7792 22.1195C30.9142 21.8958 31.1019 21.7086 31.326 21.5742L31.3413 21.5653C31.6471 21.3859 32.0032 21.3115 32.3553 21.3535C32.7073 21.3954 33.036 21.5514 33.2911 21.7976C33.5462 22.0438 33.7137 22.3667 33.7681 22.7171C33.8225 23.0674 33.7608 23.4259 33.5924 23.7379C33.424 24.0499 33.1581 24.2982 32.8353 24.4449C32.5126 24.5916 32.1507 24.6287 31.8049 24.5505C31.4591 24.4723 31.1484 24.2831 30.9201 24.0118C30.6919 23.7405 30.5588 23.402 30.5409 23.0479L28.1219 22.4257C28.0297 22.4019 27.9467 22.3513 27.8834 22.2802C27.8201 22.2091 27.7794 22.1208 27.7666 22.0265C27.7537 21.9322 27.7691 21.8361 27.811 21.7507C27.8529 21.6652 27.9193 21.5941 28.0017 21.5465L27.9996 21.5477ZM31.9864 23.6085C32.0712 23.6324 32.16 23.6391 32.2474 23.6282C32.3349 23.6173 32.4193 23.589 32.4956 23.5451C32.572 23.5011 32.6388 23.4423 32.6922 23.3721C32.7455 23.302 32.7843 23.2219 32.8062 23.1365C32.8282 23.0511 32.8328 22.9623 32.8199 22.8751C32.807 22.7879 32.7768 22.7042 32.7311 22.6288C32.6854 22.5535 32.6251 22.488 32.5537 22.4363C32.4824 22.3846 32.4014 22.3477 32.3155 22.3277C32.232 22.3022 32.1438 22.2955 32.0573 22.3078C31.9708 22.3202 31.8881 22.3513 31.815 22.3992C31.7026 22.4658 31.6124 22.5643 31.5558 22.6821C31.4993 22.8 31.4789 22.9319 31.4973 23.0613C31.5157 23.1908 31.572 23.3118 31.6592 23.4092C31.7464 23.5067 31.8605 23.5761 31.987 23.6087L31.9864 23.6085ZM6.62629 15.2232C6.86597 15.084 7.13751 15.0089 7.41468 15.0053C7.69185 15.0017 7.96527 15.0696 8.2085 15.2026C8.45174 15.3355 8.65656 15.529 8.80318 15.7642C8.9498 15.9994 9.03325 16.2685 9.04547 16.5454L11.468 17.1651C11.529 17.1808 11.5863 17.2083 11.6366 17.2461C11.6869 17.2839 11.7293 17.3313 11.7614 17.3855C11.7934 17.4397 11.8144 17.4996 11.8233 17.562C11.8322 17.6243 11.8287 17.6877 11.813 17.7487C11.7973 17.8097 11.7698 17.867 11.732 17.9173C11.6942 17.9677 11.6468 18.01 11.5926 18.0421C11.5384 18.0741 11.4784 18.0952 11.4161 18.104C11.3538 18.1129 11.2903 18.1094 11.2294 18.0937L8.807 17.4734C8.672 17.6971 8.48427 17.8844 8.2602 18.0188C7.88873 18.2323 7.44941 18.2949 7.03305 18.1938C6.72142 18.1138 6.44068 17.9429 6.22664 17.7027C6.0126 17.4625 5.87498 17.164 5.83133 16.8452C5.78769 16.5265 5.83999 16.2019 5.98158 15.9131C6.12317 15.6242 6.34762 15.384 6.62629 15.2232ZM7.27087 17.2656C7.4383 17.3091 7.61612 17.2846 7.76558 17.1975L7.77139 17.1942C7.9031 17.1163 8.00372 16.9951 8.05612 16.8514C8.10853 16.7076 8.10946 16.5501 8.05876 16.4057C8.00807 16.2614 7.90888 16.139 7.7781 16.0596C7.64733 15.9801 7.49305 15.9485 7.34156 15.9701C7.19007 15.9916 7.05074 16.065 6.94731 16.1778C6.84388 16.2906 6.78275 16.4357 6.77434 16.5885C6.76592 16.7413 6.81074 16.8922 6.90116 17.0157C6.99158 17.1391 7.12201 17.2274 7.27021 17.2655L7.27087 17.2656ZM21.3961 7.03512C21.4692 6.74397 21.6216 6.47884 21.8366 6.2693C22.0515 6.05976 22.3204 5.91407 22.6133 5.84846C22.9062 5.78285 23.2116 5.79992 23.4954 5.89775C23.7792 5.99559 24.0302 6.17034 24.2204 6.40252C24.4107 6.6347 24.5326 6.91517 24.5728 7.21265C24.6129 7.51011 24.5696 7.81289 24.4477 8.08718C24.3258 8.36147 24.13 8.59649 23.8823 8.76603C23.6346 8.93556 23.3447 9.03294 23.0449 9.0473L22.4236 11.468C22.392 11.5911 22.3127 11.6967 22.2032 11.7614C22.0938 11.8261 21.9631 11.8446 21.84 11.813C21.7168 11.7813 21.6113 11.7021 21.5466 11.5926C21.4819 11.4832 21.4634 11.3525 21.495 11.2293L22.1163 8.80865C21.8207 8.63042 21.5908 8.36129 21.461 8.04152C21.3311 7.72175 21.3085 7.36894 21.3961 7.03512ZM23.3017 8.00637C23.3766 7.96245 23.442 7.90407 23.4942 7.83462C23.5464 7.76517 23.5842 7.68605 23.6055 7.60185C23.6294 7.51702 23.6361 7.42827 23.6252 7.34082C23.6143 7.25336 23.586 7.16897 23.542 7.09259C23.4981 7.01622 23.4393 6.9494 23.3691 6.89606C23.2989 6.84273 23.2188 6.80396 23.1335 6.78202C23.0481 6.76009 22.9592 6.75543 22.8721 6.76833C22.7849 6.78123 22.7012 6.81142 22.6258 6.85713C22.5505 6.90284 22.485 6.96315 22.4333 7.03451C22.3816 7.10588 22.3446 7.18686 22.3247 7.27269C22.2923 7.39877 22.2978 7.53161 22.3407 7.65454C22.3835 7.77747 22.4616 7.88502 22.5653 7.9637C22.669 8.04237 22.7937 8.08867 22.9236 8.09679C23.0535 8.10491 23.1829 8.07447 23.2956 8.00931L23.3017 8.00637ZM15.8134 30.7523C16.0367 30.6261 16.2868 30.5547 16.5431 30.544L17.163 28.1219C17.1947 27.9988 17.2739 27.8932 17.3834 27.8285C17.4928 27.7638 17.6235 27.7453 17.7467 27.7769C17.8698 27.8086 17.9753 27.8878 18.04 27.9973C18.1047 28.1067 18.1233 28.2374 18.0916 28.3605L17.4713 30.7829C17.7669 30.9611 17.9968 31.2303 18.1266 31.55C18.2565 31.8698 18.2793 32.223 18.1917 32.5568C18.1254 32.8156 17.9962 33.0539 17.8155 33.2505C17.6348 33.4472 17.4082 33.5961 17.156 33.684C16.9038 33.772 16.6338 33.7961 16.37 33.7544C16.1062 33.7127 15.8568 33.6064 15.6441 33.445C15.4313 33.2835 15.2618 33.072 15.1506 32.8292C15.0393 32.5864 14.9899 32.3198 15.0067 32.0532C15.0234 31.7867 15.1059 31.5284 15.2466 31.3014C15.3873 31.0745 15.582 30.8858 15.8134 30.7523ZM16.4582 32.7951C16.628 32.8384 16.8081 32.8127 16.959 32.7235C17.1099 32.6343 17.2192 32.4889 17.2632 32.3193C17.2956 32.1932 17.29 32.0604 17.2472 31.9374C17.2044 31.8145 17.1262 31.7069 17.0225 31.6283C16.9188 31.5496 16.7942 31.5033 16.6642 31.4952C16.5343 31.4871 16.4049 31.5175 16.2922 31.5826L16.286 31.5862C16.2111 31.6302 16.1456 31.6885 16.0935 31.758C16.0413 31.8274 16.0035 31.9066 15.9822 31.9908C15.939 32.1605 15.9649 32.3405 16.0541 32.4912C16.1433 32.6419 16.2886 32.7512 16.4582 32.7951ZM25.9465 24.5096C26.0238 24.4087 26.138 24.3426 26.264 24.3259C26.39 24.3092 26.5174 24.3432 26.6183 24.4205L30.6954 27.5454C30.795 27.6231 30.86 27.7371 30.876 27.8624C30.8921 27.9878 30.858 28.1144 30.7812 28.2148C30.7043 28.3151 30.5909 28.381 30.4657 28.3982C30.3405 28.4153 30.2136 28.3823 30.1126 28.3064L26.0351 25.1817C25.9852 25.1434 25.9432 25.0956 25.9117 25.0411C25.8802 24.9866 25.8598 24.9264 25.8515 24.864C25.8433 24.8016 25.8475 24.7382 25.8637 24.6773C25.88 24.6165 25.9081 24.5595 25.9465 24.5096ZM8.94508 11.2491C9.02715 11.2017 9.12144 11.1797 9.21602 11.1859C9.31061 11.1921 9.40124 11.2261 9.47645 11.2838L13.5539 14.4085C13.6548 14.4858 13.7209 14.6001 13.7376 14.7262C13.7543 14.8522 13.7202 14.9797 13.6429 15.0807C13.5655 15.1816 13.4513 15.2477 13.3252 15.2644C13.1991 15.2811 13.0716 15.247 12.9707 15.1697L8.89364 12.0448C8.831 11.9969 8.78116 11.9342 8.74853 11.8624C8.7159 11.7906 8.7015 11.7119 8.70659 11.6332C8.71167 11.5545 8.7361 11.4783 8.77771 11.4113C8.81931 11.3443 8.8768 11.2886 8.94508 11.2491ZM27.4767 18.7804C27.4684 18.718 27.4725 18.6545 27.4888 18.5937C27.505 18.5329 27.5331 18.4758 27.5714 18.4258C27.6098 18.3759 27.6575 18.3339 27.7121 18.3024C27.7666 18.2709 27.8268 18.2505 27.8893 18.2423L32.9833 17.5702C33.0457 17.562 33.1092 17.5661 33.17 17.5824C33.2308 17.5987 33.2878 17.6267 33.3377 17.6651C33.3876 17.7034 33.4295 17.7511 33.461 17.8056C33.4925 17.8601 33.513 17.9203 33.5212 17.9827C33.5294 18.0451 33.5253 18.1085 33.509 18.1693C33.4927 18.2301 33.4646 18.2871 33.4263 18.337C33.388 18.387 33.3402 18.4289 33.2857 18.4604C33.2312 18.4919 33.1711 18.5123 33.1087 18.5205L28.0146 19.1926C27.8886 19.2093 27.7612 19.1752 27.6603 19.0979C27.5594 19.0206 27.4934 18.9064 27.4767 18.7804ZM12.1112 20.8115C12.1194 20.874 12.1153 20.9374 12.0991 20.9983C12.0828 21.0591 12.0547 21.1161 12.0164 21.1661C11.9781 21.2161 11.9303 21.258 11.8757 21.2895C11.8212 21.321 11.761 21.3415 11.6986 21.3497L6.60449 22.0218C6.54209 22.03 6.47867 22.0259 6.41787 22.0096C6.35707 21.9933 6.30008 21.9652 6.25013 21.9269C6.20019 21.8886 6.15828 21.8408 6.1268 21.7863C6.09532 21.7318 6.07488 21.6717 6.06665 21.6093C6.05842 21.5469 6.06256 21.4834 6.07884 21.4226C6.09512 21.3619 6.12321 21.3049 6.16152 21.2549C6.19982 21.205 6.24759 21.1631 6.30209 21.1316C6.35659 21.1001 6.41676 21.0797 6.47916 21.0714L11.5732 20.3993C11.6992 20.3827 11.8267 20.4168 11.9275 20.4941C12.0284 20.5714 12.0945 20.6855 12.1112 20.8115ZM11.2709 30.1042L14.4 26.0287C14.4383 25.9787 14.4861 25.9368 14.5406 25.9054C14.5951 25.8739 14.6553 25.8535 14.7177 25.8453C14.7801 25.8371 14.8435 25.8413 14.9043 25.8576C14.9651 25.8739 15.0221 25.902 15.072 25.9403C15.1219 25.9787 15.1638 26.0264 15.1953 26.081C15.2267 26.1355 15.2471 26.1957 15.2553 26.2581C15.2635 26.3205 15.2594 26.3839 15.2431 26.4447C15.2268 26.5055 15.1987 26.5624 15.1603 26.6124L12.0313 30.6879C11.9929 30.7379 11.9451 30.7797 11.8906 30.8112C11.8361 30.8427 11.7759 30.8631 11.7135 30.8713C11.5875 30.8878 11.46 30.8537 11.3592 30.7763C11.3093 30.7379 11.2674 30.6901 11.2359 30.6356C11.2045 30.5811 11.1841 30.5209 11.1759 30.4585C11.1593 30.3325 11.1935 30.205 11.2709 30.1042ZM27.6967 8.78053C27.7927 8.72468 27.9052 8.70394 28.0149 8.72187C28.1246 8.73981 28.2246 8.79529 28.2979 8.87884C28.3712 8.96239 28.4131 9.0688 28.4166 9.17987C28.4201 9.29095 28.3849 9.39978 28.3169 9.48774L25.1879 13.5633C25.1495 13.6132 25.1018 13.6551 25.0472 13.6866C24.9927 13.718 24.9325 13.7384 24.8701 13.7466C24.8077 13.7549 24.7443 13.7507 24.6835 13.7344C24.6227 13.7181 24.5658 13.69 24.5158 13.6516C24.4659 13.6133 24.424 13.5655 24.3926 13.511C24.3611 13.4565 24.3407 13.3963 24.3325 13.3339C24.3243 13.2715 24.3285 13.2081 24.3448 13.1473C24.3611 13.0865 24.3892 13.0295 24.4275 12.9796L27.5566 8.90403C27.5947 8.85408 27.6423 8.81211 27.6967 8.78053ZM20.3896 28.0167C20.3814 27.9543 20.3856 27.8908 20.4019 27.83C20.4183 27.7692 20.4464 27.7122 20.4848 27.6623C20.5232 27.6124 20.571 27.5705 20.6255 27.539C20.6801 27.5076 20.7403 27.4872 20.8027 27.479C20.8652 27.4709 20.9286 27.4751 20.9894 27.4914C21.0502 27.5077 21.1072 27.5359 21.1571 27.5743C21.207 27.6126 21.2489 27.6605 21.2804 27.715C21.3118 27.7696 21.3322 27.8298 21.3404 27.8922L22.0077 32.9857C22.0165 33.0484 22.0127 33.1122 21.9967 33.1734C21.9806 33.2346 21.9526 33.2921 21.9143 33.3424C21.8759 33.3927 21.828 33.435 21.7732 33.4667C21.7184 33.4984 21.6579 33.519 21.5952 33.5272C21.5324 33.5354 21.4687 33.5311 21.4076 33.5145C21.3465 33.4979 21.2893 33.4694 21.2393 33.4306C21.1893 33.3919 21.1474 33.3435 21.1162 33.2885C21.085 33.2335 21.0649 33.1728 21.0573 33.11L20.3896 28.0167ZM17.8166 6.1272C17.8849 6.08779 17.9618 6.06585 18.0407 6.06332C18.1195 6.06078 18.1977 6.07774 18.2684 6.11268C18.3391 6.14762 18.4001 6.19947 18.4459 6.26362C18.4918 6.32778 18.5211 6.40226 18.5313 6.48046L19.199 11.5737C19.2155 11.6998 19.1813 11.8273 19.1038 11.9281C19.0263 12.029 18.912 12.0949 18.7859 12.1114C18.6598 12.1279 18.5323 12.0936 18.4315 12.0162C18.3306 11.9387 18.2647 11.8243 18.2482 11.6982L17.5809 6.60471C17.5686 6.51073 17.5844 6.41521 17.6263 6.33021C17.6683 6.24522 17.7345 6.17457 17.8166 6.1272Z" fill="url(#paint0_linear_41_672)"/>
<defs>
<linearGradient id="paint0_linear_41_672" x1="39.6026" y1="32.8933" x2="-2.41711" y2="16.6061" gradientUnits="userSpaceOnUse">
<stop stop-color="#45A3D9"/>
<stop offset="1" stop-color="#45D9D0"/>
</linearGradient>
</defs>
</svg>
