<svg width="27" height="27" viewBox="0 0 27 27" fill="none" xmlns="http://www.w3.org/2000/svg">
<path d="M24.1771 1.75833H21.5396V1.31875C21.5396 0.968996 21.4006 0.633567 21.1533 0.386253C20.906 0.138939 20.5706 0 20.2208 0C19.8711 0 19.5357 0.138939 19.2883 0.386253C19.041 0.633567 18.9021 0.968996 18.9021 1.31875V1.75833H14.5063V1.31875C14.5063 0.968996 14.3673 0.633567 14.12 0.386253C13.8727 0.138939 13.5373 0 13.1875 0C12.8377 0 12.5023 0.138939 12.255 0.386253C12.0077 0.633567 11.8687 0.968996 11.8687 1.31875V1.75833H7.47292V1.31875C7.47292 0.968996 7.33398 0.633567 7.08666 0.386253C6.83935 0.138939 6.50392 0 6.15417 0C5.80441 0 5.46898 0.138939 5.22167 0.386253C4.97436 0.633567 4.83542 0.968996 4.83542 1.31875V1.75833H2.19792C1.61519 1.75899 1.05653 1.99076 0.644478 2.40281C0.23243 2.81486 0.000654459 3.37353 0 3.95625V24.1771C0.000654459 24.7598 0.23243 25.3185 0.644478 25.7305C1.05653 26.1426 1.61519 26.3743 2.19792 26.375H24.1771C24.7598 26.3743 25.3185 26.1426 25.7305 25.7305C26.1426 25.3185 26.3743 24.7598 26.375 24.1771V3.95625C26.3743 3.37353 26.1426 2.81486 25.7305 2.40281C25.3185 1.99076 24.7598 1.75899 24.1771 1.75833ZM19.7812 1.31875C19.7812 1.20217 19.8276 1.09036 19.91 1.00792C19.9924 0.92548 20.1042 0.879167 20.2208 0.879167C20.3374 0.879167 20.4492 0.92548 20.5317 1.00792C20.6141 1.09036 20.6604 1.20217 20.6604 1.31875V3.95625C20.6604 4.07283 20.6141 4.18464 20.5317 4.26708C20.4492 4.34952 20.3374 4.39583 20.2208 4.39583C20.1042 4.39583 19.9924 4.34952 19.91 4.26708C19.8276 4.18464 19.7812 4.07283 19.7812 3.95625V1.31875ZM12.7479 1.31875C12.7479 1.20217 12.7942 1.09036 12.8767 1.00792C12.9591 0.92548 13.0709 0.879167 13.1875 0.879167C13.3041 0.879167 13.4159 0.92548 13.4983 1.00792C13.5808 1.09036 13.6271 1.20217 13.6271 1.31875V3.95625C13.6271 4.07283 13.5808 4.18464 13.4983 4.26708C13.4159 4.34952 13.3041 4.39583 13.1875 4.39583C13.0709 4.39583 12.9591 4.34952 12.8767 4.26708C12.7942 4.18464 12.7479 4.07283 12.7479 3.95625V1.31875ZM5.71458 1.31875C5.71458 1.20217 5.7609 1.09036 5.84333 1.00792C5.92577 0.92548 6.03758 0.879167 6.15417 0.879167C6.27075 0.879167 6.38256 0.92548 6.465 1.00792C6.54744 1.09036 6.59375 1.20217 6.59375 1.31875V3.95625C6.59375 4.07283 6.54744 4.18464 6.465 4.26708C6.38256 4.34952 6.27075 4.39583 6.15417 4.39583C6.03758 4.39583 5.92577 4.34952 5.84333 4.26708C5.7609 4.18464 5.71458 4.07283 5.71458 3.95625V1.31875ZM2.19792 2.6375H4.83542V3.95625C4.83542 4.306 4.97436 4.64143 5.22167 4.88875C5.46898 5.13606 5.80441 5.275 6.15417 5.275C6.50392 5.275 6.83935 5.13606 7.08666 4.88875C7.33398 4.64143 7.47292 4.306 7.47292 3.95625V2.6375H11.8687V3.95625C11.8687 4.306 12.0077 4.64143 12.255 4.88875C12.5023 5.13606 12.8377 5.275 13.1875 5.275C13.5373 5.275 13.8727 5.13606 14.12 4.88875C14.3673 4.64143 14.5063 4.306 14.5063 3.95625V2.6375H18.9021V3.95625C18.9021 4.306 19.041 4.64143 19.2883 4.88875C19.5357 5.13606 19.8711 5.275 20.2208 5.275C20.5706 5.275 20.906 5.13606 21.1533 4.88875C21.4006 4.64143 21.5396 4.306 21.5396 3.95625V2.6375H24.1771C24.5267 2.63791 24.8619 2.77698 25.1091 3.0242C25.3564 3.27143 25.4954 3.60662 25.4958 3.95625V7.03333H0.879167V3.95625C0.879574 3.60662 1.01864 3.27143 1.26587 3.0242C1.51309 2.77698 1.84829 2.63791 2.19792 2.6375ZM24.1771 25.4958H2.19792C1.84829 25.4954 1.51309 25.3564 1.26587 25.1091C1.01864 24.8619 0.879574 24.5267 0.879167 24.1771V7.9125H25.4958V24.1771C25.4954 24.5267 25.3564 24.8619 25.1091 25.1091C24.8619 25.3564 24.5267 25.4954 24.1771 25.4958Z" fill="#F96222"/>
<path d="M23.2979 10.9896H21.5396C21.423 10.9896 21.3112 11.0359 21.2288 11.1183C21.1463 11.2008 21.1 11.3126 21.1 11.4292V13.1875C21.1 13.3041 21.1463 13.4159 21.2288 13.4983C21.3112 13.5808 21.423 13.6271 21.5396 13.6271H23.2979C23.4145 13.6271 23.5263 13.5808 23.6088 13.4983C23.6912 13.4159 23.7375 13.3041 23.7375 13.1875V11.4292C23.7375 11.3126 23.6912 11.2008 23.6088 11.1183C23.5263 11.0359 23.4145 10.9896 23.2979 10.9896ZM22.8583 12.7479H21.9792V11.8687H22.8583V12.7479ZM14.5063 19.7812H12.7479C12.6313 19.7812 12.5195 19.8276 12.4371 19.91C12.3547 19.9924 12.3083 20.1042 12.3083 20.2208V21.9792C12.3083 22.0957 12.3547 22.2075 12.4371 22.29C12.5195 22.3724 12.6313 22.4187 12.7479 22.4187H14.5063C14.6228 22.4187 14.7347 22.3724 14.8171 22.29C14.8995 22.2075 14.9458 22.0957 14.9458 21.9792V20.2208C14.9458 20.1042 14.8995 19.9924 14.8171 19.91C14.7347 19.8276 14.6228 19.7812 14.5063 19.7812ZM14.0667 21.5396H13.1875V20.6604H14.0667V21.5396ZM10.1104 10.9896H8.35209C8.23551 10.9896 8.1237 11.0359 8.04126 11.1183C7.95882 11.2008 7.91251 11.3126 7.91251 11.4292V13.1875C7.91251 13.3041 7.95882 13.4159 8.04126 13.4983C8.1237 13.5808 8.23551 13.6271 8.35209 13.6271H10.1104C10.227 13.6271 10.3388 13.5808 10.4213 13.4983C10.5037 13.4159 10.55 13.3041 10.55 13.1875V11.4292C10.55 11.3126 10.5037 11.2008 10.4213 11.1183C10.3388 11.0359 10.227 10.9896 10.1104 10.9896ZM9.67084 12.7479H8.79168V11.8687H9.67084V12.7479ZM5.71459 15.3854H3.95626C3.83968 15.3854 3.72787 15.4317 3.64543 15.5142C3.56299 15.5966 3.51668 15.7084 3.51668 15.825V17.5833C3.51668 17.6999 3.56299 17.8117 3.64543 17.8942C3.72787 17.9766 3.83968 18.0229 3.95626 18.0229H5.71459C5.83118 18.0229 5.94299 17.9766 6.02543 17.8942C6.10786 17.8117 6.15418 17.6999 6.15418 17.5833V15.825C6.15418 15.7084 6.10786 15.5966 6.02543 15.5142C5.94299 15.4317 5.83118 15.3854 5.71459 15.3854ZM5.27501 17.1437H4.39584V16.2646H5.27501V17.1437ZM10.1104 15.3854H8.35209C8.23551 15.3854 8.1237 15.4317 8.04126 15.5142C7.95882 15.5966 7.91251 15.7084 7.91251 15.825V17.5833C7.91251 17.6999 7.95882 17.8117 8.04126 17.8942C8.1237 17.9766 8.23551 18.0229 8.35209 18.0229H10.1104C10.227 18.0229 10.3388 17.9766 10.4213 17.8942C10.5037 17.8117 10.55 17.6999 10.55 17.5833V15.825C10.55 15.7084 10.5037 15.5966 10.4213 15.5142C10.3388 15.4317 10.227 15.3854 10.1104 15.3854ZM9.67084 17.1437H8.79168V16.2646H9.67084V17.1437ZM5.71459 19.7812H3.95626C3.83968 19.7812 3.72787 19.8276 3.64543 19.91C3.56299 19.9924 3.51668 20.1042 3.51668 20.2208V21.9792C3.51668 22.0957 3.56299 22.2075 3.64543 22.29C3.72787 22.3724 3.83968 22.4187 3.95626 22.4187H5.71459C5.83118 22.4187 5.94299 22.3724 6.02543 22.29C6.10786 22.2075 6.15418 22.0957 6.15418 21.9792V20.2208C6.15418 20.1042 6.10786 19.9924 6.02543 19.91C5.94299 19.8276 5.83118 19.7812 5.71459 19.7812ZM5.27501 21.5396H4.39584V20.6604H5.27501V21.5396ZM10.1104 19.7812H8.35209C8.23551 19.7812 8.1237 19.8276 8.04126 19.91C7.95882 19.9924 7.91251 20.1042 7.91251 20.2208V21.9792C7.91251 22.0957 7.95882 22.2075 8.04126 22.29C8.1237 22.3724 8.23551 22.4187 8.35209 22.4187H10.1104C10.227 22.4187 10.3388 22.3724 10.4213 22.29C10.5037 22.2075 10.55 22.0957 10.55 21.9792V20.2208C10.55 20.1042 10.5037 19.9924 10.4213 19.91C10.3388 19.8276 10.227 19.7812 10.1104 19.7812ZM9.67084 21.5396H8.79168V20.6604H9.67084V21.5396ZM19.4081 12.8019L17.2101 12.4661L16.2229 10.3632C16.1875 10.2876 16.1312 10.2237 16.0607 10.1789C15.9903 10.1341 15.9085 10.1104 15.825 10.1104C15.7415 10.1104 15.6598 10.1341 15.5893 10.1789C15.5188 10.2237 15.4626 10.2876 15.4271 10.3632L14.4403 12.4661L12.2424 12.8019C12.1625 12.8141 12.0874 12.8481 12.0256 12.9001C11.9637 12.9522 11.9174 13.0203 11.8917 13.097C11.866 13.1737 11.862 13.2559 11.8801 13.3348C11.8982 13.4136 11.9376 13.4859 11.9942 13.5437L13.5976 15.187L13.2184 17.5128C13.2053 17.5941 13.2153 17.6774 13.2473 17.7533C13.2792 17.8292 13.3319 17.8946 13.3992 17.9421C13.4665 17.9895 13.5458 18.0171 13.628 18.0217C13.7102 18.0263 13.7921 18.0076 13.8642 17.968L15.825 16.8842L17.7858 17.968C17.858 18.0079 17.94 18.0267 18.0223 18.0222C18.1047 18.0177 18.1842 17.9901 18.2516 17.9426C18.319 17.8951 18.3718 17.8296 18.4037 17.7535C18.4357 17.6774 18.4456 17.5939 18.4323 17.5125L18.0531 15.1868L19.6566 13.5434C19.7131 13.4856 19.7526 13.4133 19.7706 13.3345C19.7887 13.2557 19.7847 13.1734 19.759 13.0967C19.7334 13.02 19.6871 12.9519 19.6252 12.8999C19.5633 12.8478 19.4883 12.8138 19.4083 12.8016L19.4081 12.8019ZM17.2687 14.7315C17.2207 14.7808 17.1848 14.8406 17.1641 14.9062C17.1434 14.9718 17.1384 15.0414 17.1495 15.1093L17.4187 16.7605L16.0375 15.9968C15.9725 15.9608 15.8993 15.9419 15.8249 15.9419C15.7505 15.9419 15.6774 15.9608 15.6123 15.9968L14.2311 16.7605L14.5003 15.1093C14.5114 15.0414 14.5064 14.9718 14.4857 14.9062C14.465 14.8406 14.4291 14.7808 14.3811 14.7315L13.2205 13.5418L14.8048 13.3C14.8761 13.2891 14.9437 13.2608 15.0015 13.2176C15.0593 13.1744 15.1056 13.1176 15.1363 13.0523L15.825 11.5845L16.5138 13.052C16.5445 13.1173 16.5907 13.1741 16.6486 13.2173C16.7064 13.2605 16.7739 13.2888 16.8453 13.2997L18.4296 13.5415L17.2687 14.7315ZM23.2979 15.3854H21.5396C21.423 15.3854 21.3112 15.4317 21.2288 15.5142C21.1463 15.5966 21.1 15.7084 21.1 15.825V17.5833C21.1 17.6999 21.1463 17.8117 21.2288 17.8942C21.3112 17.9766 21.423 18.0229 21.5396 18.0229H23.2979C23.4145 18.0229 23.5263 17.9766 23.6088 17.8942C23.6912 17.8117 23.7375 17.6999 23.7375 17.5833V15.825C23.7375 15.7084 23.6912 15.5966 23.6088 15.5142C23.5263 15.4317 23.4145 15.3854 23.2979 15.3854ZM22.8583 17.1437H21.9792V16.2646H22.8583V17.1437ZM23.2979 19.7812H21.5396C21.423 19.7812 21.3112 19.8276 21.2288 19.91C21.1463 19.9924 21.1 20.1042 21.1 20.2208V21.9792C21.1 22.0957 21.1463 22.2075 21.2288 22.29C21.3112 22.3724 21.423 22.4187 21.5396 22.4187H23.2979C23.4145 22.4187 23.5263 22.3724 23.6088 22.29C23.6912 22.2075 23.7375 22.0957 23.7375 21.9792V20.2208C23.7375 20.1042 23.6912 19.9924 23.6088 19.91C23.5263 19.8276 23.4145 19.7812 23.2979 19.7812ZM22.8583 21.5396H21.9792V20.6604H22.8583V21.5396ZM18.9021 19.7812H17.1438C17.0272 19.7812 16.9154 19.8276 16.8329 19.91C16.7505 19.9924 16.7042 20.1042 16.7042 20.2208V21.9792C16.7042 22.0957 16.7505 22.2075 16.8329 22.29C16.9154 22.3724 17.0272 22.4187 17.1438 22.4187H18.9021C19.0187 22.4187 19.1305 22.3724 19.2129 22.29C19.2954 22.2075 19.3417 22.0957 19.3417 21.9792V20.2208C19.3417 20.1042 19.2954 19.9924 19.2129 19.91C19.1305 19.8276 19.0187 19.7812 18.9021 19.7812ZM18.4625 21.5396H17.5833V20.6604H18.4625V21.5396Z" fill="#F96222"/>
</svg>
