<svg width="22" height="36" viewBox="0 0 22 36" fill="none" xmlns="http://www.w3.org/2000/svg">
<path d="M11.0196 34.8552C13.0925 34.8552 14.7728 33.1749 14.7728 31.102C14.7728 29.0292 13.0925 27.3489 11.0196 27.3489C8.94677 27.3489 7.26642 29.0292 7.26642 31.102C7.26642 33.1749 8.94677 34.8552 11.0196 34.8552Z" fill="#3E4958"/>
<path fill-rule="evenodd" clip-rule="evenodd" d="M11.0192 28.2721C9.45619 28.2721 8.18911 29.5392 8.18911 31.1022C8.18911 32.6652 9.45619 33.9323 11.0192 33.9323C12.5822 33.9323 13.8493 32.6652 13.8493 31.1022C13.8493 29.5392 12.5822 28.2721 11.0192 28.2721ZM6.34296 31.1022C6.34296 28.5195 8.43658 26.4259 11.0192 26.4259C13.6018 26.4259 15.6955 28.5195 15.6955 31.1022C15.6955 33.6848 13.6018 35.7785 11.0192 35.7785C8.43658 35.7785 6.34296 33.6848 6.34296 31.1022Z" fill="#FDFDFD"/>
<path fill-rule="evenodd" clip-rule="evenodd" d="M10.1094 19.7562H11.7833V30.4393H10.1094V19.7562Z" fill="#3E4958"/>
<path d="M11.02 20.218C16.4092 20.218 20.7782 15.8491 20.7782 10.4598C20.7782 5.07046 16.4092 0.701538 11.02 0.701538C5.63064 0.701538 1.26172 5.07046 1.26172 10.4598C1.26172 15.8491 5.63064 20.218 11.02 20.218Z" fill="#F76E01"/>
<path fill-rule="evenodd" clip-rule="evenodd" d="M11.0198 1.16289C5.88533 1.16289 1.72306 5.32517 1.72306 10.4596C1.72306 15.594 5.88533 19.7563 11.0198 19.7563C16.1542 19.7563 20.3164 15.594 20.3164 10.4596C20.3164 5.32517 16.1542 1.16289 11.0198 1.16289ZM0.799988 10.4597C0.799988 4.81542 5.37554 0.239868 11.0198 0.239868C16.664 0.239868 21.2396 4.81542 21.2396 10.4597C21.2396 16.1039 16.664 20.6794 11.0198 20.6794C5.37554 20.6794 0.799988 16.1039 0.799988 10.4597Z" fill="#F76E01"/>
<path d="M11.0201 13.4624C12.6783 13.4624 14.0227 12.118 14.0227 10.4598C14.0227 8.80155 12.6783 7.45728 11.0201 7.45728C9.36185 7.45728 8.01758 8.80155 8.01758 10.4598C8.01758 12.118 9.36185 13.4624 11.0201 13.4624Z" fill="#F9FFFF"/>
</svg>
