<svg width="428" height="926" viewBox="0 0 428 926" fill="none" xmlns="http://www.w3.org/2000/svg">
<g clip-path="url(#clip0_37849_368)">
<rect width="428" height="926" rx="45" fill="white"/>
<rect width="428" height="926" fill="#EAEAEA"/>
<mask id="mask0_37849_368" style="mask-type:alpha" maskUnits="userSpaceOnUse" x="20" y="16" width="388" height="894">
<rect x="20" y="16" width="388" height="894" rx="45" fill="#D9D9D9"/>
</mask>
<g mask="url(#mask0_37849_368)">
<path d="M414.607 -13.5901H-12.7965V824.294H414.607V-13.5901Z" fill="#E9E8E8"/>
<path d="M368.642 337.019L460.174 299.521L453.403 210.105L386.846 217.175L344.895 299.619L367.844 298.926L368.642 337.019Z" fill="#D7D6D6"/>
<path d="M370.036 394.607L444.448 444.74L340.738 481.441L331.933 475.176L206.276 447.722L224.186 425.344L368.047 423.258L370.036 394.607Z" fill="#D7D6D6"/>
<path d="M8.48877 435.073L54.891 432.806V468.362L140.021 520.234L77.7495 593.928L8.48877 435.073Z" fill="#D9E9B3"/>
<path d="M95.2522 582.994L138.469 622.194L147.544 725.209L64.0413 616.961L95.2522 582.994Z" fill="#D9E9B3"/>
<path d="M91.0723 -26.7218H225.978L224.035 100.193H163.895L161.907 32.7559L93.4598 32.161L91.0723 -26.7218Z" fill="#D9E9B3"/>
<path d="M241.824 182.154L284.581 246.767L266.46 291.042L213 302.246L232.342 270.079L192.944 255.758L191.95 209.608L241.824 182.154Z" fill="#D9E9B3"/>
<path d="M268.486 659.625L293.431 613.731L249.228 566.21L244.483 607.067L189.819 613.158L185.488 660.551L198.518 767.798H217.023V720.45H267.364L268.486 659.625Z" fill="#D7D6D6"/>
<path d="M-1.56628 148.819L46.6209 93.8519C46.6209 93.8519 70.3229 110.244 91.065 113.527C91.065 127.254 93.4525 133.669 93.4525 133.669L116.59 167.998L99.4175 184.548L26.1274 183.968L-1.56628 148.819Z" fill="#D7D6D6"/>
<path d="M263.306 371.551L364.312 370.7V423.258L280.742 421.316L263.306 371.551Z" fill="#F6E4CB"/>
<path d="M196.221 330.161H250.457C250.457 330.161 267.32 288.958 267.109 289.477C266.898 289.989 213.009 302.248 213.009 302.248L196.221 330.161Z" fill="#D7D6D6"/>
<path d="M146.309 518.313L56.4495 466.817V432.805L155.535 384.464L204.363 448.565L146.309 518.313Z" fill="#D7D6D6"/>
<path d="M-95.9968 823.624L-101.502 813.03L56.4505 731.008V612.595L223.223 417.287H360.886V305.094H321.985L220.007 161.38V-49.3934H231.945V157.578L328.153 293.159H372.823V429.222H228.729L68.3881 616.992V738.259L-95.9968 823.624Z" fill="white"/>
<path d="M444.448 584.387H321.095L256.979 508.404L143.417 524.766L50.4771 472.088V372.702L147.183 306.711V215.119L85.0999 129.182V-35.0728H97.0375V125.319L159.121 211.256V313.014L62.4147 379.005V465.13L145.759 512.365L261.829 495.649L326.646 572.452H444.448V584.387Z" fill="white"/>
<path d="M252.851 333.736H127.104L80.8221 266.104H-79.2548V158.285H-72.0922V258.943H84.6029L130.885 326.576H248.046L283.257 240.548L321.879 234.773V194.639L357.39 169.173L320.967 103.777H160.311V37.7333H91.0726V30.5725H167.481V96.6162H325.185L366.76 171.266L329.049 198.313V240.939L288.348 247.031L252.851 333.736Z" fill="white"/>
<path d="M502.291 853.615L327.452 747.829V665.273H184.005L91.0723 581.075L95.885 575.766L186.769 658.112H334.614V743.793L505.996 847.486L502.291 853.615Z" fill="white"/>
<path d="M471.2 716.288L333.514 480.131L202.314 451.789L154.466 388.968L57.2777 436.383H-108.305V429.222H55.6207L156.605 379.955L206.411 445.343L338.109 473.799L338.907 475.161L477.391 712.681L471.2 716.288Z" fill="white"/>
<path d="M491.008 374.284H261.294L226.791 332.434L232.32 327.878L264.675 367.123H491.008V374.284Z" fill="white"/>
<path d="M270.942 901.473H263.78V771.374H174.831L60.622 618.369H-168V611.208H64.2146L178.424 764.213H270.942V901.473Z" fill="white"/>
<path d="M9.70882 431.836L5.33154 433.744L76.4251 596.796L80.8023 594.888L9.70882 431.836Z" fill="white"/>
<path d="M-15.5574 431.977L-19.9642 433.815L55.4656 614.634L59.8725 612.796L-15.5574 431.977Z" fill="white"/>
<path d="M-46.2335 431.978L-50.6404 433.815L24.7894 614.634L29.1963 612.797L-46.2335 431.978Z" fill="white"/>
<path d="M33.3884 493.825L-42.2731 521.081L-40.6544 525.573L35.0071 498.316L33.3884 493.825Z" fill="white"/>
<path d="M54.086 538.461L-21.5756 565.718L-19.9568 570.209L55.7047 542.953L54.086 538.461Z" fill="white"/>
<path d="M191.182 211.392L170.086 131.237C166.666 130.477 149.366 126.764 90.8457 115.891C52.3064 103.686 25.5015 83.1897 11.0182 54.9379C-11.1022 11.7697 3.81795 -34.9752 3.96858 -35.442L6.23559 -34.6966C6.08496 -34.2373 -8.51883 11.6116 13.1571 53.8762C27.3316 81.5256 53.6697 101.623 91.4256 113.587C157.99 125.944 171.2 129.054 171.328 129.084L172.021 129.249L192.703 207.83L297.867 149.941L298.153 149.934L447.979 145.16L448.055 147.547L298.515 152.313L191.182 211.392Z" fill="white"/>
<path d="M27.7983 262.519H25.4108V183.351H98.9419L118.072 164.91L119.729 166.635L99.9059 185.738H27.7983V262.519Z" fill="white"/>
<path d="M295.819 100.192H293.432V33.584L423.397 -73L424.911 -71.1552L295.819 34.7135V100.192Z" fill="white"/>
<path d="M294.621 52.6498H163.895V55.0368H294.621V52.6498Z" fill="white"/>
<path d="M294.621 65.4796H163.895V67.8665H294.621V65.4796Z" fill="white"/>
<path d="M294.621 78.3112H163.895V80.6982H294.621V78.3112Z" fill="white"/>
<path d="M178.499 361.943L78.1403 361.853L-6.25894 327.773H-81.6428V325.386H-5.79951L78.8181 359.556H177.151L230.573 270.705L191.77 256.601L190.76 209.631L193.148 209.578L194.12 254.915L234.112 269.455L178.499 361.943Z" fill="white"/>
<path d="M367.091 339.308H301.777L266.604 290.816L212.715 303.534L152.741 256.556H112.56V219.954H65.6004V262.52H63.2129V217.567H114.948V254.169H153.562L213.288 300.951L267.606 288.128L302.989 336.921H366.616L458.72 298.949L452.303 210.941L325.607 226.309L325.32 223.937L454.503 208.267L461.228 300.492L367.091 339.308Z" fill="white"/>
<path d="M385.434 217.177L344.915 296.199L347.039 297.287L387.559 218.265L385.434 217.177Z" fill="white"/>
<path d="M284.612 243.846L280.952 160.182L261.061 100.577L263.32 99.8162L283.332 159.911L286.992 243.74L284.612 243.846Z" fill="white"/>
<path d="M351.448 150.197L349.58 148.706L388.066 100.613L341.657 78.0241L393.474 47.1069L337.8 -0.993358L339.359 -2.80051L397.534 47.4608L346.673 77.8133L391.795 99.7777L351.448 150.197Z" fill="white"/>
<path d="M85.6272 910.027L83.3752 909.236L146.693 729.162L136.895 617.872L243.407 605.982L255.465 502.29L257.837 502.561L245.553 608.143L139.478 619.98L149.111 729.463L149.028 729.704L85.6272 910.027Z" fill="white"/>
<path d="M218.213 848.759H173.965L130.749 777.482L-36.4004 787.173L-36.536 784.793L132.052 775.02L175.313 846.372H215.826V719.262H266.167V661.388L292.716 612.542H353.119V578.718L321.705 519.519L350.009 501.425L351.297 503.428L324.846 520.347L355.507 578.123V614.929H294.139L268.554 661.998V721.649H218.213V848.759Z" fill="white"/>
<path d="M425.348 700.76H374.608V639.881H309.505L292.438 614.401L248.71 567.4H192.057L143.749 519.412L145.429 517.718L193.043 565.013H249.749L294.306 612.917L310.778 637.494H377.003V698.373H425.348V700.76Z" fill="white"/>
<path d="M25.6668 185.287L-30.6847 114.718H-110.693V112.331H-29.5324L27.5346 183.796L25.6668 185.287Z" fill="white"/>
<path d="M114.653 219.547L112.853 217.974L136.48 191.047L144.471 158.24L130.952 80.6982H91.2525L47.5541 94.6057L-0.851557 149.822L-2.65161 148.248L46.1909 92.535L91.0717 78.3112H132.963L146.904 158.323L138.656 192.184L114.653 219.547Z" fill="white"/>
<path d="M214.727 510.038L181.121 475.62L101.444 410.585L127.857 329.783L130.132 330.528L104.223 409.772L182.733 473.858L214.953 506.853L272.472 462.827L281.442 423.34L261.566 370.323L301.619 337.192L303.148 339.037L264.405 371.084L283.927 423.167L274.611 464.197L274.272 464.46L214.727 510.038Z" fill="white"/>
<path d="M339.54 484.233L337.936 479.738L439.183 443.489L365.524 394.207L368.175 390.239L449.72 444.792L339.54 484.233Z" fill="white"/>
<path d="M78.3367 852.989L76.7249 780.5L34.917 749.342L15.3499 692.997H-85.2197V688.223H18.7466L38.9464 746.39L81.4472 778.068L83.1117 852.884L78.3367 852.989Z" fill="white"/>
<path d="M19.4468 672.712H-98.7543V667.938H14.6718V640.884H62.4146V645.658H19.4468V672.712Z" fill="white"/>
<path d="M169.769 873.9L165.183 872.552L196.085 767.602L182.98 661.726L187.356 613.904L127.08 538.373L130.816 535.391L192.281 612.421L187.785 661.65L200.95 767.994L169.769 873.9Z" fill="white"/>
<path d="M305.32 221.839L290.704 222.39L290.921 228.154L305.537 227.602L305.32 221.839Z" fill="#F6E4CB"/>
<path d="M305.048 214.634L290.432 215.185L290.65 220.949L305.266 220.397L305.048 214.634Z" fill="#F6E4CB"/>
<path d="M304.777 207.426L290.161 207.978L290.378 213.742L304.994 213.19L304.777 207.426Z" fill="#F6E4CB"/>
<path d="M304.505 200.221L289.889 200.773L290.107 206.536L304.723 205.985L304.505 200.221Z" fill="#F6E4CB"/>
<path d="M304.234 193.014L289.618 193.566L289.835 199.329L304.451 198.778L304.234 193.014Z" fill="#F6E4CB"/>
<path d="M275.17 150.723L261.29 155.335L263.11 160.809L276.99 156.197L275.17 150.723Z" fill="#F6E4CB"/>
<path d="M272.897 143.885L259.017 148.497L260.837 153.971L274.717 149.359L272.897 143.885Z" fill="#F6E4CB"/>
<path d="M270.622 137.04L256.742 141.652L258.561 147.126L272.442 142.514L270.622 137.04Z" fill="#F6E4CB"/>
<path d="M268.347 130.195L254.467 134.807L256.286 140.281L270.167 135.669L268.347 130.195Z" fill="#F6E4CB"/>
<path d="M266.072 123.352L252.192 127.964L254.011 133.437L267.892 128.825L266.072 123.352Z" fill="#F6E4CB"/>
<path d="M89.889 340.648L82.249 329.152L77.4438 332.344L85.0838 343.84L89.889 340.648Z" fill="#F6E4CB"/>
<path d="M95.8963 336.658L88.2563 325.162L83.4512 328.354L91.0911 339.85L95.8963 336.658Z" fill="#F6E4CB"/>
<path d="M101.907 332.67L94.267 321.175L89.4618 324.367L97.1017 335.862L101.907 332.67Z" fill="#F6E4CB"/>
<path d="M107.91 328.674L100.27 317.179L95.4647 320.371L103.105 331.866L107.91 328.674Z" fill="#F6E4CB"/>
<path d="M113.92 324.686L106.28 313.191L101.475 316.383L109.115 327.878L113.92 324.686Z" fill="#F6E4CB"/>
<path d="M80.0508 325.845L72.4109 314.35L67.6057 317.541L75.2457 329.037L80.0508 325.845Z" fill="#F6E4CB"/>
<path d="M86.0601 321.858L78.4202 310.362L73.615 313.554L81.2549 325.05L86.0601 321.858Z" fill="#F6E4CB"/>
<path d="M92.0642 317.863L84.4243 306.368L79.6191 309.559L87.259 321.055L92.0642 317.863Z" fill="#F6E4CB"/>
<path d="M98.0735 313.874L90.4336 302.378L85.6284 305.57L93.2683 317.066L98.0735 313.874Z" fill="#F6E4CB"/>
<path d="M104.082 309.886L96.4423 298.39L91.6371 301.582L99.277 313.078L104.082 309.886Z" fill="#F6E4CB"/>
<path d="M70.2148 311.046L62.5748 299.55L57.7696 302.742L65.4096 314.238L70.2148 311.046Z" fill="#F6E4CB"/>
<path d="M76.2196 307.05L68.5797 295.554L63.7745 298.746L71.4144 310.242L76.2196 307.05Z" fill="#F6E4CB"/>
<path d="M82.2283 303.062L74.5884 291.566L69.7832 294.758L77.4231 306.254L82.2283 303.062Z" fill="#F6E4CB"/>
<path d="M88.2375 299.073L80.5975 287.577L75.7924 290.769L83.4323 302.265L88.2375 299.073Z" fill="#F6E4CB"/>
<path d="M94.2417 295.08L86.6018 283.584L81.7966 286.776L89.4366 298.272L94.2417 295.08Z" fill="#F6E4CB"/>
<path d="M60.3689 296.242L52.729 284.746L47.9238 287.938L55.5638 299.434L60.3689 296.242Z" fill="#F6E4CB"/>
<path d="M66.3763 292.252L58.7363 280.757L53.9311 283.948L61.5711 295.444L66.3763 292.252Z" fill="#F6E4CB"/>
<path d="M72.3869 288.264L64.7469 276.769L59.9418 279.96L67.5817 291.456L72.3869 288.264Z" fill="#F6E4CB"/>
<path d="M78.3897 284.27L70.7498 272.775L65.9446 275.966L73.5845 287.462L78.3897 284.27Z" fill="#F6E4CB"/>
<path d="M84.4003 280.28L76.7604 268.785L71.9552 271.977L79.5951 283.472L84.4003 280.28Z" fill="#F6E4CB"/>
<path d="M216.437 135.802L201.81 135.743L201.787 141.511L216.413 141.57L216.437 135.802Z" fill="#F6E4CB"/>
<path d="M216.459 128.589L201.833 128.53L201.809 134.298L216.436 134.357L216.459 128.589Z" fill="#F6E4CB"/>
<path d="M216.489 121.375L201.863 121.315L201.839 127.083L216.466 127.142L216.489 121.375Z" fill="#F6E4CB"/>
<path d="M216.519 114.169L201.893 114.11L201.869 119.878L216.496 119.937L216.519 114.169Z" fill="#F6E4CB"/>
<path d="M216.549 106.955L201.923 106.896L201.899 112.663L216.526 112.723L216.549 106.955Z" fill="#F6E4CB"/>
<path d="M216.437 172.134L201.81 172.075L201.787 177.843L216.413 177.902L216.437 172.134Z" fill="#F6E4CB"/>
<path d="M216.459 164.927L201.833 164.868L201.809 170.636L216.436 170.695L216.459 164.927Z" fill="#F6E4CB"/>
<path d="M216.489 157.715L201.863 157.655L201.839 163.423L216.466 163.482L216.489 157.715Z" fill="#F6E4CB"/>
<path d="M216.519 150.5L201.893 150.441L201.869 156.209L216.496 156.268L216.519 150.5Z" fill="#F6E4CB"/>
<path d="M216.549 143.295L201.923 143.236L201.899 149.003L216.526 149.063L216.549 143.295Z" fill="#F6E4CB"/>
<path d="M295.96 143.863L282.079 148.475L283.899 153.948L297.779 149.336L295.96 143.863Z" fill="#F6E4CB"/>
<path d="M293.685 137.019L279.804 141.631L281.624 147.105L295.504 142.493L293.685 137.019Z" fill="#F6E4CB"/>
<path d="M291.409 130.174L277.529 134.786L279.349 140.26L293.229 135.648L291.409 130.174Z" fill="#F6E4CB"/>
<path d="M289.136 123.337L275.256 127.949L277.076 133.422L290.956 128.81L289.136 123.337Z" fill="#F6E4CB"/>
<path d="M286.861 116.491L272.981 121.103L274.8 126.577L288.681 121.965L286.861 116.491Z" fill="#F6E4CB"/>
</g>
</g>
<defs>
<clipPath id="clip0_37849_368">
<rect width="428" height="926" rx="45" fill="white"/>
</clipPath>
</defs>
</svg>
