<svg width="428" height="950" viewBox="0 0 428 950" fill="none" xmlns="http://www.w3.org/2000/svg">
<rect width="428" height="950" rx="20" fill="white"/>
<path d="M36.0141 24.2563C38.7021 24.2563 40.2987 22.1543 40.2987 18.5947C40.2987 17.2544 40.0424 16.1265 39.5517 15.2549C38.8412 13.8999 37.6181 13.1675 36.0727 13.1675C33.7729 13.1675 32.1469 14.7129 32.1469 16.8809C32.1469 18.917 33.6117 20.3965 35.6259 20.3965C36.8637 20.3965 37.8671 19.8179 38.3652 18.8145H38.3871C38.3871 18.8145 38.4164 18.8145 38.4237 18.8145C38.4384 18.8145 38.4897 18.8145 38.4897 18.8145C38.4897 21.2314 37.5741 22.6743 36.0287 22.6743C35.1205 22.6743 34.4174 22.1763 34.1757 21.3779H32.2934C32.6083 23.1138 34.0805 24.2563 36.0141 24.2563ZM36.08 18.895C34.8642 18.895 33.9999 18.0308 33.9999 16.8223C33.9999 15.6431 34.9081 14.7422 36.0873 14.7422C37.2665 14.7422 38.1747 15.6577 38.1747 16.8516C38.1747 18.0308 37.2885 18.895 36.08 18.895ZM43.4516 22.8794C44.1474 22.8794 44.6235 22.3813 44.6235 21.7222C44.6235 21.0557 44.1474 20.5649 43.4516 20.5649C42.7631 20.5649 42.2797 21.0557 42.2797 21.7222C42.2797 22.3813 42.7631 22.8794 43.4516 22.8794ZM43.4516 17.3862C44.1474 17.3862 44.6235 16.8955 44.6235 16.2363C44.6235 15.5698 44.1474 15.0791 43.4516 15.0791C42.7631 15.0791 42.2797 15.5698 42.2797 16.2363C42.2797 16.8955 42.7631 17.3862 43.4516 17.3862ZM51.7607 24H53.5698V22.0298H54.998V20.4331H53.5698V13.4312H50.9038C49.0361 16.2437 47.5493 18.5947 46.5972 20.3452V22.0298H51.7607V24ZM48.3477 20.3672C49.5781 18.1992 50.6768 16.4634 51.6875 14.9692H51.79V20.4771H48.3477V20.3672ZM59.1617 24H61.0513V13.4312H59.169L56.4078 15.3647V17.1812L59.0371 15.3354H59.1617V24Z" fill="white"/>
<path fill-rule="evenodd" clip-rule="evenodd" d="M387.196 13H402.017C403.265 13 403.717 13.13 404.174 13.374C404.63 13.618 404.988 13.9761 405.232 14.4324C405.476 14.8887 405.606 15.3413 405.606 16.5894V20.9106C405.606 22.1587 405.476 22.6113 405.232 23.0676C404.988 23.5239 404.63 23.882 404.174 24.126C403.717 24.37 403.265 24.5 402.017 24.5H387.196C385.948 24.5 385.495 24.37 385.039 24.126C384.582 23.882 384.224 23.5239 383.98 23.0676C383.736 22.6113 383.606 22.1587 383.606 20.9106V16.5894C383.606 15.3413 383.736 14.8887 383.98 14.4324C384.224 13.9761 384.582 13.618 385.039 13.374C385.495 13.13 385.948 13 387.196 13ZM387.196 14C386.209 14 385.864 14.0665 385.51 14.2558C385.228 14.4066 385.013 14.622 384.862 14.904C384.673 15.2579 384.606 15.6025 384.606 16.5894V20.9106C384.606 21.8975 384.673 22.2421 384.862 22.596C385.013 22.878 385.228 23.0934 385.51 23.2442C385.864 23.4335 386.209 23.5 387.196 23.5H402.017C403.004 23.5 403.348 23.4335 403.702 23.2442C403.984 23.0934 404.2 22.878 404.35 22.596C404.54 22.2421 404.606 21.8975 404.606 20.9106V16.5894C404.606 15.6025 404.54 15.2579 404.35 14.904C404.2 14.622 403.984 14.4066 403.702 14.2558C403.348 14.0665 403.004 14 402.017 14H387.196ZM408.106 18.69C408.106 19.9266 406.606 20.69 406.606 20.69V16.69C406.606 16.69 408.106 17.4534 408.106 18.69Z" fill="white"/>
<rect x="385.606" y="14.8401" width="18" height="7.66667" rx="1.6" fill="white"/>
<path fill-rule="evenodd" clip-rule="evenodd" d="M355.229 14.4058C355.206 14.5218 355.206 14.6611 355.206 14.9399V22.6399C355.206 22.9187 355.206 23.0581 355.229 23.174C355.324 23.6501 355.696 24.0222 356.172 24.1169C356.288 24.1399 356.427 24.1399 356.706 24.1399C356.985 24.1399 357.124 24.1399 357.24 24.1169C357.716 24.0222 358.088 23.6501 358.183 23.174C358.206 23.0581 358.206 22.9187 358.206 22.6399V14.9399C358.206 14.6611 358.206 14.5218 358.183 14.4058C358.088 13.9298 357.716 13.5577 357.24 13.463C357.124 13.4399 356.985 13.4399 356.706 13.4399C356.427 13.4399 356.288 13.4399 356.172 13.463C355.696 13.5577 355.324 13.9298 355.229 14.4058ZM350.506 17.3399C350.506 17.0611 350.506 16.9218 350.529 16.8058C350.624 16.3298 350.996 15.9577 351.472 15.863C351.588 15.8399 351.727 15.8399 352.006 15.8399C352.285 15.8399 352.424 15.8399 352.54 15.863C353.016 15.9577 353.388 16.3298 353.483 16.8058C353.506 16.9218 353.506 17.0611 353.506 17.3399V22.6399C353.506 22.9187 353.506 23.0581 353.483 23.1741C353.388 23.6501 353.016 24.0222 352.54 24.1169C352.424 24.1399 352.285 24.1399 352.006 24.1399C351.727 24.1399 351.588 24.1399 351.472 24.1169C350.996 24.0222 350.624 23.6501 350.529 23.1741C350.506 23.0581 350.506 22.9187 350.506 22.6399V17.3399ZM345.929 19.1058C345.906 19.2218 345.906 19.3612 345.906 19.6399V22.6399C345.906 22.9187 345.906 23.0581 345.929 23.1741C346.024 23.6501 346.396 24.0222 346.872 24.1169C346.988 24.1399 347.127 24.1399 347.406 24.1399C347.685 24.1399 347.824 24.1399 347.94 24.1169C348.416 24.0222 348.788 23.6501 348.883 23.1741C348.906 23.0581 348.906 22.9187 348.906 22.6399V19.6399C348.906 19.3612 348.906 19.2218 348.883 19.1058C348.788 18.6298 348.416 18.2577 347.94 18.163C347.824 18.1399 347.685 18.1399 347.406 18.1399C347.127 18.1399 346.988 18.1399 346.872 18.163C346.396 18.2577 346.024 18.6298 345.929 19.1058ZM341.129 21.1058C341.106 21.2218 341.106 21.3612 341.106 21.6399V22.6399C341.106 22.9187 341.106 23.0581 341.129 23.1741C341.224 23.6501 341.596 24.0222 342.072 24.1169C342.188 24.1399 342.327 24.1399 342.606 24.1399C342.885 24.1399 343.024 24.1399 343.14 24.1169C343.616 24.0222 343.988 23.6501 344.083 23.1741C344.106 23.0581 344.106 22.9187 344.106 22.6399V21.6399C344.106 21.3612 344.106 21.2218 344.083 21.1058C343.988 20.6298 343.616 20.2577 343.14 20.163C343.024 20.1399 342.885 20.1399 342.606 20.1399C342.327 20.1399 342.188 20.1399 342.072 20.163C341.596 20.2577 341.224 20.6298 341.129 21.1058Z" fill="white"/>
<path fill-rule="evenodd" clip-rule="evenodd" d="M370.907 15.5364C373.141 15.5364 375.29 16.395 376.909 17.9346C377.031 18.0534 377.226 18.0519 377.346 17.9312L378.512 16.7548C378.573 16.6936 378.607 16.6106 378.606 16.5243C378.606 16.438 378.571 16.3555 378.509 16.295C374.259 12.2217 367.554 12.2217 363.303 16.295C363.242 16.3554 363.207 16.438 363.206 16.5242C363.206 16.6105 363.24 16.6935 363.3 16.7548L364.466 17.9312C364.586 18.0521 364.781 18.0536 364.903 17.9346C366.523 16.3949 368.672 15.5363 370.907 15.5364V15.5364ZM370.907 19.3637C372.134 19.3637 373.318 19.82 374.228 20.644C374.351 20.761 374.545 20.7584 374.665 20.6383L375.83 19.4619C375.891 19.4002 375.925 19.3165 375.924 19.2295C375.923 19.1425 375.887 19.0595 375.825 18.999C373.054 16.4213 368.762 16.4213 365.991 18.999C365.928 19.0595 365.893 19.1425 365.892 19.2296C365.891 19.3166 365.925 19.4003 365.987 19.4619L367.151 20.6383C367.271 20.7584 367.464 20.761 367.588 20.644C368.497 19.8205 369.68 19.3642 370.907 19.3637V19.3637ZM373.144 22.1713C373.207 22.1102 373.241 22.0261 373.239 21.9389C373.237 21.8517 373.2 21.769 373.135 21.7105C371.849 20.6226 369.965 20.6226 368.679 21.7105C368.614 21.769 368.576 21.8516 368.574 21.9388C368.572 22.0261 368.607 22.1102 368.669 22.1713L370.683 24.2038C370.742 24.2636 370.823 24.2972 370.907 24.2972C370.991 24.2972 371.071 24.2636 371.13 24.2038L373.144 22.1713Z" fill="white"/>
<path fill-rule="evenodd" clip-rule="evenodd" d="M428 396.063V0H0V396.063L19.3384 365.258C29.0017 349.865 51.7782 350.949 59.9349 367.191L60.6926 368.7C69.3398 385.918 94.2027 385.059 101.641 367.285V367.285C109.585 348.304 136.716 349.009 143.664 368.377L149.671 385.123C156.055 402.92 180.142 405.534 190.195 389.52L192.646 385.615C199.617 374.511 215.391 373.434 223.806 383.488V383.488C233.93 395.583 253.499 391.095 257.34 375.797L260.947 361.434C264.214 348.423 280.858 344.605 289.469 354.893L293.983 360.286C300.713 368.327 313.724 365.343 316.278 355.173V355.173C319.645 341.761 338.923 342.422 341.364 356.033L344.111 371.347C346.722 385.904 365.881 389.62 373.744 377.094L377.699 370.794C384.917 359.296 401.5 358.816 409.37 369.878L428 396.063Z" fill="url(#paint0_linear_37748_358)"/>
<defs>
<linearGradient id="paint0_linear_37748_358" x1="371.748" y1="-102.473" x2="-49.8963" y2="420.252" gradientUnits="userSpaceOnUse">
<stop offset="0.485" stop-color="#FF6900"/>
<stop offset="1" stop-color="#FEE02E"/>
</linearGradient>
</defs>
</svg>
