<svg width="32" height="24" viewBox="0 0 32 24" fill="none" xmlns="http://www.w3.org/2000/svg">
<path d="M28.3333 24H3.66675C1.64406 24 0 22.3559 0 20.3333V3.66675C0 1.64406 1.64406 0 3.66675 0H28.3333C30.3559 0 32 1.64406 32 3.66675V20.3333C32 22.3559 30.3559 24 28.3333 24ZM3.66675 2C2.748 2 2 2.74806 2 3.66675V20.3333C2 21.252 2.74806 22 3.66675 22H28.3333C29.252 22 30 21.2519 30 20.3333V3.66675C30 2.748 29.2519 2 28.3333 2H3.66675Z" fill="#F96222"/>
<path d="M10 12.0002C8.16262 12.0002 6.66675 10.5041 6.66675 8.667C6.66675 6.82962 8.16262 5.3335 10 5.3335C11.8374 5.3335 13.3333 6.82962 13.3333 8.667C13.3333 10.5041 11.8374 12.0002 10 12.0002ZM10 7.3335C9.26538 7.3335 8.66675 7.93212 8.66675 8.667C8.66675 9.40162 9.26538 10.0002 10 10.0002C10.7346 10.0002 11.3333 9.40162 11.3333 8.667C11.3333 7.93212 10.7346 7.3335 10 7.3335ZM15 18.667C14.448 18.667 14 18.219 14 17.667V17.0002C14 16.0815 13.2519 15.3335 12.3333 15.3335H7.66675C6.748 15.3335 6 16.0816 6 17.0002V17.667C6 18.219 5.552 18.667 5 18.667C4.448 18.667 4 18.219 4 17.667V17.0002C4 14.9776 5.64406 13.3335 7.66675 13.3335H12.3333C14.3559 13.3335 16 14.9776 16 17.0002V17.667C16 18.219 15.552 18.667 15 18.667ZM27 8.00025H19.6667C19.1147 8.00025 18.6667 7.55225 18.6667 7.00025C18.6667 6.44825 19.1147 6.00025 19.6667 6.00025H27C27.552 6.00025 28 6.44825 28 7.00025C28 7.55225 27.552 8.00025 27 8.00025ZM27 13.3335H19.6667C19.1147 13.3335 18.6667 12.8855 18.6667 12.3335C18.6667 11.7815 19.1147 11.3335 19.6667 11.3335H27C27.552 11.3335 28 11.7815 28 12.3335C28 12.8855 27.552 13.3335 27 13.3335ZM27 18.667H19.6667C19.1147 18.667 18.6667 18.219 18.6667 17.667C18.6667 17.115 19.1147 16.667 19.6667 16.667H27C27.552 16.667 28 17.115 28 17.667C28 18.219 27.552 18.667 27 18.667Z" fill="#F96222"/>
</svg>
