<svg width="15" height="17" viewBox="0 0 15 17" fill="none" xmlns="http://www.w3.org/2000/svg">
<path d="M7.57751 1L2.40527 2.87917L13.693 2.88102L8.51708 1H7.57751Z" fill="#ED523C"/>
<path d="M3.31272 2.87917L8.48496 1H8.51711H7.57751L2.40527 2.87917H3.31272Z" fill="#A81E1C"/>
<path d="M8.04956 6.16797H10.8656V8.51699H8.04956V6.16797Z" fill="#D9F0F3"/>
<path d="M9.41073 6.77293H10.8656V6.16797H8.04956V8.51699H8.95701V7.22666C8.95701 6.97608 9.16016 6.77293 9.41073 6.77293Z" fill="#AFE2E6"/>
<path d="M1.93994 8.5166H14.1545V9.4562H1.93994V8.5166Z" fill="#FEE088"/>
<path d="M1.93994 8.5166H2.84739V9.4562H1.93994V8.5166Z" fill="#FFC132"/>
<path d="M2.87915 2.87939H3.82507V8.51694H2.87915V2.87939Z" fill="#D9F0F3"/>
<path d="M3.82501 4.63086V8.51688H2.87915V4.63086" stroke="black" stroke-width="0.5" stroke-miterlimit="10" stroke-linecap="round" stroke-linejoin="round"/>
<path d="M12.2742 2.87939H13.2201V8.51694H12.2742V2.87939Z" fill="#D9F0F3"/>
<path d="M13.22 4.63086V8.51688H12.2742V4.63086" stroke="black" stroke-width="0.5" stroke-miterlimit="10" stroke-linecap="round" stroke-linejoin="round"/>
<path d="M4.75806 6.6377H5.69857V8.51693H4.75806V6.6377Z" fill="#FEE088"/>
<path d="M5.69824 6.6377H6.63875V8.51693H5.69824V6.6377Z" fill="#ED523C"/>
<path d="M4.29087 2.88086H2.41357V3.81952C2.41357 4.33792 2.83381 4.75819 3.35224 4.75819C3.87063 4.75819 4.2909 4.33795 4.2909 3.81952L4.29087 2.88086Z" fill="#FEE088"/>
<path d="M3.32102 3.81952V2.88086H2.41357V3.81952C2.41357 4.33792 2.83381 4.75819 3.35224 4.75819C3.51094 4.75842 3.66709 4.71824 3.80596 4.64143C3.51682 4.48145 3.32102 4.17337 3.32102 3.81952Z" fill="#FFC132"/>
<path d="M6.16908 2.88086H4.29175V3.81952C4.29175 4.33792 4.71199 4.75819 5.23041 4.75819C5.74881 4.75819 6.16908 4.33795 6.16908 3.81952V2.88086Z" fill="#ED523C"/>
<path d="M11.8065 2.88086H9.9292V3.81952C9.9292 4.33792 10.3494 4.75819 10.8679 4.75819C11.3863 4.75819 11.8065 4.33795 11.8065 3.81952V2.88086Z" fill="#FEE088"/>
<path d="M13.6857 2.88086H11.8083V3.81952C11.8083 4.33792 12.2286 4.75819 12.747 4.75819C13.2654 4.75819 13.6857 4.33795 13.6857 3.81952V2.88086Z" fill="#ED523C"/>
<path d="M3.35118 16.0334C3.74037 16.0334 4.05587 15.7179 4.05587 15.3287C4.05587 14.9395 3.74037 14.624 3.35118 14.624C2.96199 14.624 2.64648 14.9395 2.64648 15.3287C2.64648 15.7179 2.96199 16.0334 3.35118 16.0334Z" fill="#475D8C"/>
<path d="M2.41162 9.45654H13.6866V13.6847H2.41162V9.45654Z" fill="#ED523C"/>
<path d="M3.77282 10.0615H13.6866V9.45654H2.41162V13.6847H3.31907V10.5153C3.3191 10.2646 3.52222 10.0615 3.77282 10.0615Z" fill="#A81E1C"/>
<path d="M11.5726 13.6847H9.22356M5.67665 13.6847H2.41162V9.45654H13.6867V13.6847H12.7472M8.04902 13.6847H6.66516" stroke="black" stroke-width="0.5" stroke-miterlimit="10" stroke-linecap="round" stroke-linejoin="round"/>
<path d="M8.04823 2.88086H6.1709V3.81952C6.1709 4.33792 6.59114 4.75819 7.10956 4.75819C7.62796 4.75819 8.04823 4.33795 8.04823 3.81952V2.88086Z" fill="#FEE088"/>
<path d="M10.398 11.3354C9.10074 11.3354 8.04907 12.3871 8.04907 13.6844C8.04907 14.9817 9.10074 16.0334 10.398 16.0334C11.6953 16.0334 12.747 14.9817 12.747 13.6844C12.747 12.3871 11.6953 11.3354 10.398 11.3354ZM10.398 14.8589C9.74939 14.8589 9.22355 14.3331 9.22355 13.6844C9.22355 13.0358 9.74939 12.5099 10.398 12.5099C11.0467 12.5099 11.5725 13.0358 11.5725 13.6844C11.5725 14.3331 11.0467 14.8589 10.398 14.8589Z" fill="#475D8C"/>
<path d="M10.398 11.3354C9.10074 11.3354 8.04907 12.3871 8.04907 13.6844C8.04907 14.9817 9.10074 16.0334 10.398 16.0334C11.6953 16.0334 12.747 14.9817 12.747 13.6844C12.747 12.3871 11.6953 11.3354 10.398 11.3354ZM10.398 14.8589C9.74939 14.8589 9.22355 14.3331 9.22355 13.6844C9.22355 13.0358 9.74939 12.5099 10.398 12.5099C11.0467 12.5099 11.5725 13.0358 11.5725 13.6844C11.5725 14.3331 11.0467 14.8589 10.398 14.8589Z" stroke="black" stroke-width="0.5" stroke-miterlimit="10" stroke-linecap="round" stroke-linejoin="round"/>
<path d="M3.35118 16.0334C3.74037 16.0334 4.05587 15.7179 4.05587 15.3287C4.05587 14.9395 3.74037 14.624 3.35118 14.624C2.96199 14.624 2.64648 14.9395 2.64648 15.3287C2.64648 15.7179 2.96199 16.0334 3.35118 16.0334Z" stroke="black" stroke-width="0.5" stroke-miterlimit="10" stroke-linecap="round" stroke-linejoin="round"/>
<path d="M10.9014 1.86661L13.6931 2.88114L2.40527 2.87932L7.57745 1H8.51727L9.9716 1.52874M4.29083 2.88108H2.41353V3.81974C2.41353 4.33814 2.83377 4.75841 3.35219 4.75841C3.87059 4.75841 4.29086 4.33817 4.29086 3.81974L4.29083 2.88108ZM6.16906 2.88108H4.29174V3.81974C4.29174 4.33814 4.71197 4.75841 5.2304 4.75841C5.74879 4.75841 6.16906 4.33817 6.16906 3.81974V2.88108ZM8.04824 2.88108H6.17091V3.81974C6.17091 4.33814 6.59115 4.75841 7.10957 4.75841C7.62797 4.75841 8.04824 4.33817 8.04824 3.81974V2.88108Z" stroke="black" stroke-width="0.5" stroke-miterlimit="10" stroke-linecap="round" stroke-linejoin="round"/>
<path d="M9.92738 2.88086H8.05005V3.81952C8.05005 4.33792 8.47029 4.75819 8.98871 4.75819C9.50711 4.75819 9.92738 4.33795 9.92738 3.81952V2.88086Z" fill="#ED523C"/>
<path d="M9.92733 2.88086H8.05V3.81952C8.05 4.33792 8.47024 4.75819 8.98867 4.75819C9.50706 4.75819 9.92733 4.33795 9.92733 3.81952V2.88086ZM11.8065 2.88086H9.92918V3.81952C9.92918 4.33792 10.3494 4.75819 10.8678 4.75819C11.3862 4.75819 11.8065 4.33795 11.8065 3.81952V2.88086ZM13.6856 2.88086H11.8083V3.81952C11.8083 4.33792 12.2286 4.75819 12.747 4.75819C13.2654 4.75819 13.6856 4.33795 13.6856 3.81952V2.88086ZM4.75806 6.63733H5.69857V8.51656H4.75806V6.63733Z" stroke="black" stroke-width="0.5" stroke-miterlimit="10" stroke-linecap="round" stroke-linejoin="round"/>
<path d="M6.16833 6.63775V6.16797M5.22827 6.63775V6.16797M5.69806 6.63775H6.63857V8.51699H5.69806V6.63775Z" stroke="black" stroke-width="0.5" stroke-miterlimit="10" stroke-linecap="round" stroke-linejoin="round"/>
<path d="M1.94003 8.51705H14.1546V9.45665H1.94003V8.51705ZM1.94003 8.51705H1.46979C1.21032 8.51705 1 8.3067 1 8.04726M3.3512 15.329V13.7011M11.3354 6.16797H9.95188H10.8657V8.51705H8.04957V6.16797H8.96337H7.57709" stroke="black" stroke-width="0.5" stroke-miterlimit="10" stroke-linecap="round" stroke-linejoin="round"/>
</svg>
