<svg width="91" height="75" viewBox="0 0 91 75" fill="none" xmlns="http://www.w3.org/2000/svg">
<path fill-rule="evenodd" clip-rule="evenodd" d="M77.2364 5.00855C79.1655 3.88315 78.3864 0.93198 76.1532 0.905428L12.1427 0.144379C5.45994 0.0649246 6.04502e-07 5.46033 5.46406e-07 12.1435L1.05018e-07 62.9191C4.71326e-08 69.578 5.42183 74.9636 12.0806 74.9189L73.9871 74.5031C76.5876 74.4856 77.4212 70.9933 75.109 69.8032V69.8032C73.2231 68.8324 73.339 66.0982 75.3003 65.2906L78.2989 64.0558C81.5173 62.7305 81.379 58.1258 78.0869 56.9961V56.9961C74.6074 55.8021 74.7177 50.8435 78.2469 49.8055L82.0945 48.6738C85.3113 47.7276 85.7278 43.3406 82.7464 41.806L81.8535 41.3464C79.7574 40.2675 79.5727 37.3416 81.5164 36.0076V36.0076C83.7813 34.4532 83.0723 30.9413 80.3818 30.3873L76.4641 29.5807C74.1606 29.1065 73.5535 26.0997 75.4927 24.7689L76.4118 24.138C78.0062 23.0438 77.5071 20.5717 75.6131 20.1818V20.1818C73.2099 19.687 73.3088 16.221 75.7363 15.864L79.0027 15.3837C81.6722 14.9911 82.2681 11.4053 79.869 10.1704L77.3381 8.86773C75.793 8.07238 75.7352 5.88424 77.2364 5.00855V5.00855Z" fill="url(#paint0_linear_37779_474)"/>
<path d="M36.4232 16L21.1497 21.5492L54.4821 21.5546L39.1978 16H36.4232Z" fill="#ED523C"/>
<path d="M23.8293 21.5492L39.1029 16H39.1979H36.4232L21.1497 21.5492H23.8293Z" fill="#A81E1C"/>
<path d="M37.8174 31.2603H46.1331V38.1969H37.8174V31.2603Z" fill="#D9F0F3"/>
<path d="M41.8369 33.0467H46.1331V31.2603H37.8174V38.1969H40.4971V34.3866C40.4971 33.6466 41.097 33.0467 41.8369 33.0467Z" fill="#AFE2E6"/>
<path d="M19.7759 38.1968H55.8454V40.9714H19.7759V38.1968Z" fill="#FEE088"/>
<path d="M19.7759 38.1968H22.4556V40.9714H19.7759V38.1968Z" fill="#FFC132"/>
<path d="M22.5491 21.5498H25.3424V38.1974H22.5491V21.5498Z" fill="#D9F0F3"/>
<path d="M25.3422 26.7217V38.1971H22.5491V26.7217" stroke="black" stroke-miterlimit="10" stroke-linecap="round" stroke-linejoin="round"/>
<path d="M50.2922 21.5498H53.0855V38.1974H50.2922V21.5498Z" fill="#D9F0F3"/>
<path d="M53.0854 26.7217V38.1971H50.2922V26.7217" stroke="black" stroke-miterlimit="10" stroke-linecap="round" stroke-linejoin="round"/>
<path d="M28.0977 32.6475H30.875V38.1968H28.0977V32.6475Z" fill="#FEE088"/>
<path d="M30.8735 32.6475H33.6508V38.1968H30.8735V32.6475Z" fill="#ED523C"/>
<path d="M26.7175 21.5547H21.1738V24.3266C21.1738 25.8574 22.4148 27.0984 23.9457 27.0984C25.4765 27.0984 26.7176 25.8575 26.7176 24.3266L26.7175 21.5547Z" fill="#FEE088"/>
<path d="M23.8535 24.3266V21.5547H21.1738V24.3266C21.1738 25.8574 22.4148 27.0984 23.9457 27.0984C24.4143 27.0991 24.8754 26.9805 25.2855 26.7536C24.4317 26.2812 23.8535 25.3714 23.8535 24.3266Z" fill="#FFC132"/>
<path d="M32.2639 21.5547H26.7202V24.3266C26.7202 25.8574 27.9612 27.0984 29.4921 27.0984C31.0229 27.0984 32.2639 25.8575 32.2639 24.3266V21.5547Z" fill="#ED523C"/>
<path d="M48.9116 21.5547H43.3679V24.3266C43.3679 25.8574 44.6089 27.0984 46.1398 27.0984C47.6706 27.0984 48.9116 25.8575 48.9116 24.3266V21.5547Z" fill="#FEE088"/>
<path d="M54.4607 21.5547H48.917V24.3266C48.917 25.8574 50.158 27.0984 51.6889 27.0984C53.2197 27.0984 54.4607 25.8575 54.4607 24.3266V21.5547Z" fill="#ED523C"/>
<path d="M23.943 60.3938C25.0923 60.3938 26.024 59.4622 26.024 58.3129C26.024 57.1636 25.0923 56.2319 23.943 56.2319C22.7937 56.2319 21.8621 57.1636 21.8621 58.3129C21.8621 59.4622 22.7937 60.3938 23.943 60.3938Z" fill="#475D8C"/>
<path d="M21.1685 40.9717H54.4634V53.4573H21.1685V40.9717Z" fill="#ED523C"/>
<path d="M25.1881 42.7581H54.4634V40.9717H21.1685V53.4573H23.8481V44.0981C23.8482 43.3579 24.448 42.7581 25.1881 42.7581Z" fill="#A81E1C"/>
<path d="M48.2206 53.4573H41.2838M30.8098 53.4573H21.1682V40.9717H54.4634V53.4573H51.6891M37.8154 53.4573H33.7289" stroke="black" stroke-miterlimit="10" stroke-linecap="round" stroke-linejoin="round"/>
<path d="M37.8133 21.5547H32.2695V24.3266C32.2695 25.8574 33.5105 27.0984 35.0414 27.0984C36.5722 27.0984 37.8133 25.8575 37.8133 24.3266V21.5547Z" fill="#FEE088"/>
<path d="M44.7524 46.5205C40.9215 46.5205 37.8159 49.6261 37.8159 53.457C37.8159 57.2878 40.9215 60.3934 44.7524 60.3934C48.5832 60.3934 51.6888 57.2878 51.6888 53.457C51.6888 49.6261 48.5832 46.5205 44.7524 46.5205ZM44.7524 56.9252C42.8369 56.9252 41.2841 55.3724 41.2841 53.457C41.2841 51.5415 42.8369 49.9887 44.7524 49.9887C46.6678 49.9887 48.2206 51.5415 48.2206 53.457C48.2206 55.3724 46.6678 56.9252 44.7524 56.9252Z" fill="#475D8C"/>
<path d="M44.7524 46.5205C40.9215 46.5205 37.8159 49.6261 37.8159 53.457C37.8159 57.2878 40.9215 60.3934 44.7524 60.3934C48.5832 60.3934 51.6888 57.2878 51.6888 53.457C51.6888 49.6261 48.5832 46.5205 44.7524 46.5205ZM44.7524 56.9252C42.8369 56.9252 41.2841 55.3724 41.2841 53.457C41.2841 51.5415 42.8369 49.9887 44.7524 49.9887C46.6678 49.9887 48.2206 51.5415 48.2206 53.457C48.2206 55.3724 46.6678 56.9252 44.7524 56.9252Z" stroke="black" stroke-miterlimit="10" stroke-linecap="round" stroke-linejoin="round"/>
<path d="M23.943 60.3938C25.0923 60.3938 26.024 59.4622 26.024 58.3129C26.024 57.1636 25.0923 56.2319 23.943 56.2319C22.7937 56.2319 21.8621 57.1636 21.8621 58.3129C21.8621 59.4622 22.7937 60.3938 23.943 60.3938Z" stroke="black" stroke-miterlimit="10" stroke-linecap="round" stroke-linejoin="round"/>
<path d="M46.2387 18.5591L54.4824 21.555L21.1497 21.5496L36.423 16H39.1983L43.4929 17.5614M26.7177 21.5548H21.174V24.3267C21.174 25.8575 22.415 27.0985 23.9459 27.0985C25.4767 27.0985 26.7178 25.8576 26.7178 24.3267L26.7177 21.5548ZM32.2641 21.5548H26.7204V24.3267C26.7204 25.8575 27.9613 27.0985 29.4922 27.0985C31.023 27.0985 32.2641 25.8576 32.2641 24.3267V21.5548ZM37.8133 21.5548H32.2695V24.3267C32.2695 25.8575 33.5105 27.0985 35.0414 27.0985C36.5722 27.0985 37.8133 25.8576 37.8133 24.3267V21.5548Z" stroke="black" stroke-miterlimit="10" stroke-linecap="round" stroke-linejoin="round"/>
<path d="M43.3623 21.5547H37.8186V24.3266C37.8186 25.8574 39.0596 27.0984 40.5905 27.0984C42.1213 27.0984 43.3623 25.8575 43.3623 24.3266V21.5547Z" fill="#ED523C"/>
<path d="M43.3625 21.5547H37.8187V24.3266C37.8187 25.8574 39.0597 27.0984 40.5906 27.0984C42.1214 27.0984 43.3625 25.8575 43.3625 24.3266V21.5547ZM48.9116 21.5547H43.3679V24.3266C43.3679 25.8574 44.6089 27.0984 46.1398 27.0984C47.6706 27.0984 48.9116 25.8575 48.9116 24.3266V21.5547ZM54.4607 21.5547H48.917V24.3266C48.917 25.8574 50.158 27.0984 51.6889 27.0984C53.2197 27.0984 54.4607 25.8575 54.4607 24.3266V21.5547ZM28.0977 32.6475H30.875V38.1969H28.0977V32.6475Z" stroke="black" stroke-miterlimit="10" stroke-linecap="round" stroke-linejoin="round"/>
<path d="M32.2623 32.6475V31.2603M29.4863 32.6475V31.2603M30.8736 32.6475H33.6509V38.1969H30.8736V32.6475Z" stroke="black" stroke-miterlimit="10" stroke-linecap="round" stroke-linejoin="round"/>
<path d="M19.7759 38.1971H55.8454V40.9717H19.7759V38.1971ZM19.7759 38.1971H18.3873C17.6211 38.1971 17 37.5759 17 36.8098M23.9431 58.3127V53.5054M47.5204 31.2603H43.4348H46.1332V38.1971H37.8173V31.2603H40.5157H36.4221" stroke="black" stroke-miterlimit="10" stroke-linecap="round" stroke-linejoin="round"/>
<defs>
<linearGradient id="paint0_linear_37779_474" x1="-20.2132" y1="10.6516" x2="71.5411" y2="100.916" gradientUnits="userSpaceOnUse">
<stop stop-color="#FF6901"/>
<stop offset="1" stop-color="#FEC022"/>
</linearGradient>
</defs>
</svg>
